# xmcd CD database file
#
# Track frame offsets:
#	150
#	19617
#	39612
#	56715
#	75267
#	102150
#	119680
#
# Disc length: 2072 seconds
#
# Revision: 2
# Processed by: cddbd v1.5PL3 Copyright (c) Steve Scherf et al.
# Submitted via: Feurio! 1.67 - http://www.feurio.com
#
DISCID=50081607
DTITLE=Deniece Williams - This is Neicy
DYEAR=1976
DGENRE=Soul
TTITLE0=It's Important To Me
TTITLE1=That's What Friends Are For
TTITLE2=How'd I Know That Love Would Slip away
TTITLE3=Cause You Love Me Baby
TTITLE4=Free
TTITLE5=Watching Over
TTITLE6=If You Don't Believe
EXTD=
EXTT0=
EXTT1=
EXTT2=
EXTT3=
EXTT4=
EXTT5=
EXTT6=
PLAYORDER=
